<mxfile host="app.diagrams.net" modified="2022-12-12T07:44:49.456Z" agent="5.0 (Macintosh; Intel Mac OS X 10_15_7) AppleWebKit/537.36 (KHTML, like Gecko) Chrome/108.0.0.0 Safari/537.36" etag="ggENTxvWV3ErznegGpln" version="20.6.2" type="github">
  <diagram name="Page-1" id="12e1b939-464a-85fe-373e-61e167be1490">
    <mxGraphModel dx="1298" dy="866" grid="1" gridSize="10" guides="1" tooltips="1" connect="1" arrows="1" fold="1" page="1" pageScale="1.5" pageWidth="1169" pageHeight="826" background="none" math="0" shadow="0">
      <root>
        <mxCell id="0" />
        <mxCell id="1" parent="0" />
        <mxCell id="60da8b9f42644d3a-3" value="ATTRACT" style="text;html=1;strokeColor=none;fillColor=none;align=center;verticalAlign=middle;whiteSpace=wrap;rounded=0;shadow=0;fontSize=27;fontColor=#FFFFFF;fontStyle=1" parent="1" vertex="1">
          <mxGeometry x="316" y="425" width="280" height="60" as="geometry" />
        </mxCell>
        <mxCell id="6lUa_tUudgZqhHnAaPzq-12" style="edgeStyle=orthogonalEdgeStyle;rounded=0;orthogonalLoop=1;jettySize=auto;html=1;exitX=0.5;exitY=1;exitDx=0;exitDy=0;entryX=0.5;entryY=0;entryDx=0;entryDy=0;" edge="1" parent="1" source="6lUa_tUudgZqhHnAaPzq-4" target="6lUa_tUudgZqhHnAaPzq-7">
          <mxGeometry relative="1" as="geometry" />
        </mxCell>
        <mxCell id="6lUa_tUudgZqhHnAaPzq-4" value="Google Workspace Support" style="shape=ext;double=1;rounded=0;whiteSpace=wrap;html=1;" vertex="1" parent="1">
          <mxGeometry x="570" y="150" width="120" height="80" as="geometry" />
        </mxCell>
        <mxCell id="6lUa_tUudgZqhHnAaPzq-13" style="edgeStyle=orthogonalEdgeStyle;rounded=0;orthogonalLoop=1;jettySize=auto;html=1;exitX=0.5;exitY=1;exitDx=0;exitDy=0;entryX=0.5;entryY=0;entryDx=0;entryDy=0;" edge="1" parent="1" source="6lUa_tUudgZqhHnAaPzq-7" target="6lUa_tUudgZqhHnAaPzq-8">
          <mxGeometry relative="1" as="geometry" />
        </mxCell>
        <mxCell id="6lUa_tUudgZqhHnAaPzq-7" value="Customer Creates a Case" style="shape=ext;double=1;rounded=0;whiteSpace=wrap;html=1;" vertex="1" parent="1">
          <mxGeometry x="570" y="270" width="120" height="80" as="geometry" />
        </mxCell>
        <mxCell id="6lUa_tUudgZqhHnAaPzq-8" value="Case will routed to TSR Queue" style="shape=ext;double=1;rounded=0;whiteSpace=wrap;html=1;" vertex="1" parent="1">
          <mxGeometry x="570" y="380" width="120" height="80" as="geometry" />
        </mxCell>
        <mxCell id="6lUa_tUudgZqhHnAaPzq-14" value="Collab" style="html=1;whiteSpace=wrap;aspect=fixed;shape=isoRectangle;" vertex="1" parent="1">
          <mxGeometry x="140" y="560" width="150" height="90" as="geometry" />
        </mxCell>
        <mxCell id="6lUa_tUudgZqhHnAaPzq-15" value="M&amp;amp;S" style="html=1;whiteSpace=wrap;aspect=fixed;shape=isoRectangle;" vertex="1" parent="1">
          <mxGeometry x="560" y="560" width="150" height="90" as="geometry" />
        </mxCell>
        <mxCell id="6lUa_tUudgZqhHnAaPzq-16" value="Gmail" style="html=1;whiteSpace=wrap;aspect=fixed;shape=isoRectangle;" vertex="1" parent="1">
          <mxGeometry x="360" y="560" width="150" height="90" as="geometry" />
        </mxCell>
        <mxCell id="6lUa_tUudgZqhHnAaPzq-17" value="dRTC" style="html=1;whiteSpace=wrap;aspect=fixed;shape=isoRectangle;" vertex="1" parent="1">
          <mxGeometry x="760" y="560" width="150" height="90" as="geometry" />
        </mxCell>
        <mxCell id="6lUa_tUudgZqhHnAaPzq-18" value="Admin Console" style="html=1;whiteSpace=wrap;aspect=fixed;shape=isoRectangle;" vertex="1" parent="1">
          <mxGeometry x="950" y="560" width="150" height="90" as="geometry" />
        </mxCell>
        <mxCell id="6lUa_tUudgZqhHnAaPzq-21" value="" style="endArrow=none;html=1;rounded=0;entryX=0;entryY=0.5;entryDx=0;entryDy=0;entryPerimeter=0;" edge="1" parent="1" target="6lUa_tUudgZqhHnAaPzq-26">
          <mxGeometry width="50" height="50" relative="1" as="geometry">
            <mxPoint x="210" y="520" as="sourcePoint" />
            <mxPoint x="1040" y="520" as="targetPoint" />
          </mxGeometry>
        </mxCell>
        <mxCell id="6lUa_tUudgZqhHnAaPzq-22" value="" style="endArrow=classic;html=1;rounded=0;exitX=0.5;exitY=1;exitDx=0;exitDy=0;" edge="1" parent="1" source="6lUa_tUudgZqhHnAaPzq-8">
          <mxGeometry width="50" height="50" relative="1" as="geometry">
            <mxPoint x="580" y="500" as="sourcePoint" />
            <mxPoint x="630" y="520" as="targetPoint" />
          </mxGeometry>
        </mxCell>
        <mxCell id="6lUa_tUudgZqhHnAaPzq-26" value="" style="shape=singleArrow;direction=south;whiteSpace=wrap;html=1;" vertex="1" parent="1">
          <mxGeometry x="995" y="520" width="60" height="40" as="geometry" />
        </mxCell>
        <mxCell id="6lUa_tUudgZqhHnAaPzq-27" value="" style="shape=singleArrow;direction=south;whiteSpace=wrap;html=1;" vertex="1" parent="1">
          <mxGeometry x="805" y="520" width="60" height="40" as="geometry" />
        </mxCell>
        <mxCell id="6lUa_tUudgZqhHnAaPzq-28" value="" style="shape=singleArrow;direction=south;whiteSpace=wrap;html=1;" vertex="1" parent="1">
          <mxGeometry x="605" y="520" width="60" height="40" as="geometry" />
        </mxCell>
        <mxCell id="6lUa_tUudgZqhHnAaPzq-29" value="" style="shape=singleArrow;direction=south;whiteSpace=wrap;html=1;" vertex="1" parent="1">
          <mxGeometry x="405" y="520" width="60" height="40" as="geometry" />
        </mxCell>
        <mxCell id="6lUa_tUudgZqhHnAaPzq-30" value="" style="shape=singleArrow;direction=south;whiteSpace=wrap;html=1;" vertex="1" parent="1">
          <mxGeometry x="185" y="520" width="60" height="40" as="geometry" />
        </mxCell>
      </root>
    </mxGraphModel>
  </diagram>
</mxfile>
